<svg width="27" height="18" viewBox="0 0 27 18" fill="none" xmlns="http://www.w3.org/2000/svg">
<g id="Group 108">
<path id="Vector" d="M0.619141 9.60752C1.52028 9.13467 2.37852 8.66182 3.23675 8.23788C3.36548 8.17266 3.56574 8.25419 3.72308 8.31941C4.48119 8.64551 5.22499 9.00423 5.9974 9.31402C6.14044 9.37924 6.35499 9.42816 6.48373 9.34663C7.72817 8.62921 8.9583 7.87917 10.2743 7.09652C8.05716 5.62906 5.89727 4.22681 3.63726 2.74304C4.38106 2.35172 5.05334 1.9767 5.73993 1.6506C5.88297 1.58538 6.11183 1.6669 6.28348 1.73212C9.05843 2.54738 11.8191 3.39525 14.5797 4.22681C14.8229 4.29203 15.1376 4.25942 15.3521 4.14529C17.1544 3.16698 18.9424 2.13975 20.7447 1.14514C22.4326 0.232049 24.1204 0.590763 25.7654 1.30819C26.3375 1.55277 26.409 2.09084 26.0085 2.77565C25.2218 4.14529 24.2348 5.33557 22.9332 6.03669C19.6576 7.81395 16.3677 9.52599 13.0778 11.238C11.4472 12.0859 9.80223 12.9012 8.14298 13.7001C7.8426 13.8469 7.485 13.8632 7.15601 13.8632C6.71259 13.8632 6.26917 13.7653 5.81145 13.7327C5.33942 13.6838 4.93891 13.5208 4.55271 13.162C3.36548 12.0533 2.13535 10.9772 0.933826 9.90101C0.848003 9.83579 0.762179 9.73796 0.619141 9.60752Z" fill="#F7A81A"/>
<path id="Vector_2" d="M22.7639 17.4H3.21821C2.75999 17.4 2.3877 17.0036 2.3877 16.5158C2.3877 16.0279 2.75999 15.6316 3.21821 15.6316H22.7782C23.2364 15.6316 23.6087 16.0279 23.6087 16.5158C23.6087 17.0036 23.2364 17.4 22.7639 17.4Z" fill="#F7A81A"/>
</g>
</svg>
