<svg width="22" height="19" viewBox="0 0 22 19" fill="none" xmlns="http://www.w3.org/2000/svg">
<g id="Frame" clip-path="url(#clip0_301_523)">
<g id="Group">
<path id="Vector" d="M7.42608 2.3621C7.42608 1.94089 7.42608 1.55701 7.42608 1.16779C7.42608 0.741251 7.72019 0.479996 8.21037 0.479996C9.8341 0.479996 11.4578 0.479996 13.0815 0.479996C13.5656 0.479996 13.8658 0.741251 13.8658 1.16779C13.8658 1.55168 13.8658 1.94089 13.8658 2.35677C13.9639 2.35677 14.0497 2.35677 14.1416 2.35677C15.6673 2.35677 17.1868 2.35677 18.7125 2.35677C19.2762 2.35677 19.5581 2.60736 19.5642 3.09255C19.5642 3.95629 19.5887 4.82537 19.5581 5.68911C19.5274 6.56352 19.1047 7.24065 18.1304 7.58721C17.9711 7.64053 18.0079 7.7365 18.0079 7.82714C18.0079 10.4877 18.014 13.1429 18.0017 15.8034C17.9956 16.9018 17.3951 17.7015 16.2555 18.1601C15.9062 18.2987 15.4896 18.3787 15.1035 18.384C12.1379 18.4 9.17848 18.4 6.21288 18.3893C4.60141 18.384 3.30855 17.243 3.30243 15.8301C3.2963 13.1696 3.2963 10.5143 3.30243 7.8538C3.30243 7.69385 3.25341 7.6192 3.08185 7.54456C2.21177 7.182 1.72772 6.59551 1.73997 5.73177C1.7461 4.8467 1.73997 3.96163 1.73997 3.07122C1.73997 2.60736 2.03408 2.35677 2.56715 2.35677C4.09897 2.35677 5.63079 2.35677 7.16261 2.35677C7.23613 2.3621 7.31579 2.3621 7.42608 2.3621ZM10.6368 10.461C9.5645 10.461 8.49222 10.461 7.41995 10.461C6.43959 10.461 5.83299 10.9889 5.83299 11.8473C5.83299 12.8603 5.83299 13.8733 5.83299 14.8864C5.83299 15.7341 6.45184 16.2726 7.42608 16.2726C9.57062 16.2726 11.7152 16.2726 13.8597 16.2726C14.8462 16.2726 15.4589 15.7341 15.4589 14.8704C15.4589 13.8627 15.4589 12.8603 15.4589 11.8526C15.4589 10.9835 14.8523 10.461 13.8536 10.461C12.7813 10.461 11.709 10.461 10.6368 10.461ZM11.7029 3.64705C11.7029 3.93497 11.7029 4.20689 11.7029 4.4788C11.7029 5.6038 11.6968 6.7288 11.709 7.8538C11.7152 8.5416 12.2605 9.05877 12.9958 9.11209C13.7555 9.17074 14.3744 8.76553 14.5276 8.10972C14.5582 7.97643 14.5582 7.83247 14.5582 7.69385C14.5582 6.41423 14.5582 5.13994 14.5582 3.86032C14.5582 3.79101 14.5521 3.7217 14.546 3.64172C13.6024 3.64705 12.671 3.64705 11.7029 3.64705ZM6.72144 3.64705C6.72144 4.14291 6.72144 4.62276 6.72144 5.10262C6.72144 6.057 6.70306 7.00605 6.73982 7.9551C6.77046 8.79752 7.70793 9.32003 8.62702 9.04811C9.22137 8.87216 9.58288 8.4083 9.58288 7.78982C9.589 6.45688 9.58288 5.12928 9.58288 3.79634C9.58288 3.74836 9.57062 3.69504 9.5645 3.64172C8.6209 3.64705 7.68955 3.64705 6.72144 3.64705ZM12.383 2.35144C12.383 2.1435 12.383 1.96222 12.383 1.77561C11.2127 1.77561 10.0608 1.77561 8.90888 1.77561C8.90888 1.97288 8.90888 2.1595 8.90888 2.35144C10.0731 2.35144 11.2189 2.35144 12.383 2.35144Z" fill="#F7AA20"/>
<path id="Vector_2" d="M2.03406 8.90415C2.03406 11.2608 2.03406 13.5961 2.03406 15.9314C1.10272 16.0007 0.146862 15.2809 0.0304438 14.4332C0.0181893 14.3479 0.00593474 14.2626 0.00593474 14.1719C0.00593474 13.0043 -0.00631979 11.8366 0.00593474 10.6743C0.0181893 9.71458 0.851498 8.95747 1.91764 8.90415C1.94828 8.90415 1.97892 8.90415 2.03406 8.90415Z" fill="#F7AA20"/>
<path id="Vector_3" d="M19.2456 15.9474C19.2456 13.5961 19.2456 11.2608 19.2456 8.88816C19.4172 8.90949 19.5826 8.92015 19.7358 8.95747C20.6365 9.16008 21.2553 9.81588 21.2676 10.621C21.2799 11.8206 21.286 13.0203 21.2676 14.2146C21.2553 15.1903 20.4037 15.9047 19.2456 15.9474Z" fill="#F7AA20"/>
<path id="Vector_4" d="M13.9824 14.9823C11.7459 14.9823 9.53399 14.9823 7.31592 14.9823C7.31592 13.9053 7.31592 12.8337 7.31592 11.7513C7.40783 11.746 7.48748 11.7406 7.57326 11.7406C9.6259 11.7406 11.6724 11.7406 13.725 11.7353C13.9334 11.7353 13.9946 11.778 13.9946 11.9646C13.9824 12.8976 13.9885 13.8307 13.9885 14.7584C13.9824 14.8277 13.9824 14.897 13.9824 14.9823Z" fill="#F7AA20"/>
</g>
</g>
<defs>
<clipPath id="clip0_301_523">
<rect width="21.28" height="17.92" fill="white" transform="translate(0 0.479996)"/>
</clipPath>
</defs>
</svg>
