<svg width="20" height="18" viewBox="0 0 20 18" fill="none" xmlns="http://www.w3.org/2000/svg">
<g id="Group">
<g id="Group_2">
<path id="Vector" d="M16.2969 7.14241C16.2969 10.0917 14.0958 12.8132 10.9189 13.7023C9.19485 14.1794 7.50336 14.1144 5.81187 13.518C5.56249 13.4313 5.21551 13.453 4.95529 13.5505C4.22881 13.8216 3.53487 14.1794 2.83008 14.483C2.2771 14.7216 1.9735 14.483 2.07108 13.9084C2.19035 13.2036 2.37468 12.4988 2.48311 11.7832C2.51564 11.5446 2.48311 11.2193 2.34215 11.035C-0.173392 7.7713 0.769937 3.01128 4.86854 0.918605C8.67439 -1.03311 13.4778 0.289719 15.4729 3.83534C16.0259 4.82204 16.3186 5.88464 16.2969 7.14241ZM12.7079 7.35927C12.7079 6.89303 12.2742 6.45931 11.808 6.44847C11.32 6.43763 10.8646 6.90387 10.8863 7.38096C10.908 7.8472 11.3417 8.28091 11.808 8.27007C12.2742 8.25923 12.7079 7.82551 12.7079 7.35927ZM8.63102 8.27007C9.09726 8.27007 9.53098 7.83636 9.54182 7.37011C9.55266 6.89303 9.12979 6.45931 8.6527 6.44847C8.15393 6.43763 7.72022 6.87134 7.72022 7.37011C7.7419 7.8472 8.16477 8.27007 8.63102 8.27007ZM6.36486 7.34843C6.35402 6.84965 5.96367 6.44847 5.47574 6.44847C4.96613 6.44847 4.56494 6.87134 4.58663 7.3918C4.59747 7.87973 5.02034 8.28091 5.49743 8.27007C5.97452 8.25923 6.36486 7.8472 6.36486 7.34843Z" fill="#F7A81A"/>
<path id="Vector_2" d="M6.96143 14.9059C13.6948 15.9143 19.0295 10.135 16.6333 4.12808C17.4573 4.58348 18.0537 5.169 18.5741 5.86294C20.3524 8.21585 20.3524 11.3928 18.6067 13.7782C18.444 14.0059 18.3898 14.3746 18.4223 14.6565C18.5091 15.3505 18.6934 16.0336 18.8127 16.7275C18.9103 17.313 18.6067 17.5407 18.0645 17.313C17.3706 17.0203 16.6766 16.7167 15.9935 16.3914C15.6574 16.2287 15.3755 16.2179 15.0285 16.3372C12.3829 17.248 9.889 16.9335 7.55778 15.3505C7.3843 15.242 7.2325 15.1119 6.96143 14.9059Z" fill="#F7A81A"/>
</g>
</g>
</svg>
