<svg width="16" height="17" viewBox="0 0 16 17" fill="none" xmlns="http://www.w3.org/2000/svg">
<g id="Group">
<g id="Frame_2_">
<g id="Group_2_">
<path id="Vector_2_" d="M6.32261 15.4361C6.32261 15.3496 6.32261 15.2632 6.32261 15.1767C6.32261 10.6815 6.32261 6.09986 6.32261 1.60466C6.32261 0.307965 7.6193 -0.383605 8.7431 0.221518C9.26178 0.480857 9.52112 0.999534 9.52112 1.60466C9.52112 2.29623 9.52112 3.07424 9.52112 3.76581C9.52112 7.56945 9.52112 11.4595 9.52112 15.2632C9.52112 15.3496 9.52112 15.4361 9.52112 15.5225C9.95335 15.5225 10.3856 15.5225 10.8178 15.5225C10.9043 15.5225 10.9907 15.5225 11.0772 15.5225C11.4229 15.5225 11.5958 15.8683 11.5958 16.1276C11.5958 16.387 11.3365 16.6463 11.0772 16.7327H10.9907C9.00244 16.7327 6.92773 16.7327 4.93947 16.7327C4.42079 16.7327 4.16145 16.3005 4.33435 15.8683C4.42079 15.6089 4.68013 15.5225 4.93947 15.5225C5.3717 15.4361 5.80393 15.4361 6.32261 15.4361Z" fill="#F6AA21"/>
<path id="Vector_2_2_" d="M9.43457 6.09986C9.43457 4.97606 9.43457 3.85226 9.43457 2.72845C9.52102 2.72845 9.60746 2.72845 9.60746 2.72845C10.7313 2.72845 11.8551 2.72845 13.0653 2.72845C13.2382 2.72845 13.4111 2.8149 13.4975 2.90135C14.0162 3.33358 14.5349 3.67936 14.9671 4.11159C15.2265 4.37093 15.2265 4.54383 14.9671 4.71672C14.4485 5.14895 13.9298 5.58118 13.4111 5.92696C13.3246 6.01341 13.1518 6.01341 13.0653 6.09986C11.8551 6.09986 10.6448 6.09986 9.43457 6.09986Z" fill="#F6AA21"/>
<path id="Vector_3_2_" d="M9.43457 10.9408C9.43457 9.817 9.43457 8.6932 9.43457 7.5694C9.52102 7.5694 9.60746 7.5694 9.69391 7.5694C10.8177 7.5694 11.9415 7.5694 13.0653 7.5694C13.2382 7.5694 13.4111 7.65584 13.4975 7.74229C14.0162 8.17452 14.5349 8.5203 14.9671 8.95254C15.2265 9.21187 15.2265 9.38477 14.9671 9.55766C14.4485 9.98989 13.9298 10.4221 13.4111 10.7679C13.3246 10.8544 13.1518 10.9408 13.0653 10.9408C11.8551 10.9408 10.6448 10.9408 9.43457 10.9408Z" fill="#F6AA21"/>
<path id="Vector_4_2_" d="M6.40895 2.72845C6.40895 3.85226 6.40895 4.97606 6.40895 6.09986C6.3225 6.09986 6.3225 6.09986 6.23605 6.09986C5.11225 6.09986 3.98845 6.09986 2.77821 6.09986C2.69176 6.09986 2.51887 6.09986 2.43242 6.01341C1.91374 5.58118 1.39507 5.14895 0.876389 4.71672C0.61705 4.54383 0.61705 4.37093 0.876389 4.11159C1.39507 3.67936 1.91374 3.24713 2.51887 2.8149C2.60531 2.72845 2.69176 2.72845 2.77821 2.72845C3.98845 2.72845 5.11225 2.72845 6.3225 2.72845H6.40895Z" fill="#F6AA21"/>
<path id="Vector_5_1_" d="M6.40895 10.9408C6.3225 10.9408 6.23605 10.9408 6.23605 10.9408C5.11225 10.9408 3.98845 10.9408 2.77821 10.9408C2.69176 10.9408 2.51887 10.8544 2.43242 10.7679C1.91374 10.3357 1.39507 9.90344 0.876389 9.47121C0.61705 9.29832 0.61705 9.12543 0.876389 8.95254C1.39507 8.5203 2.00019 8.08807 2.51887 7.65584C2.60531 7.5694 2.69176 7.5694 2.77821 7.5694C3.98845 7.5694 5.11225 7.5694 6.3225 7.5694H6.40895C6.40895 8.6932 6.40895 9.817 6.40895 10.9408Z" fill="#F6AA21"/>
</g>
</g>
</g>
</svg>
