<svg width="16" height="17" viewBox="0 0 16 17" fill="none" xmlns="http://www.w3.org/2000/svg">
<g id="Group 278">
<path id="Vector" d="M12.079 16.6842H3.03915C2.104 16.6842 1.32471 15.9049 1.32471 14.9697V2.4231H13.7155V14.9697C13.7155 15.9828 13.0141 16.6842 12.079 16.6842Z" fill="#F6AA21"/>
<path id="Vector_2" d="M1.94823 6.943H1.63652C0.779293 6.943 0 6.24163 0 5.30648V2.9686C0 2.65688 0.233788 2.4231 0.545505 2.4231H1.94823V6.943Z" fill="#F6AA21"/>
<path id="Vector_3" d="M13.4038 6.943V2.4231H14.4948C14.8065 2.4231 15.0403 2.65688 15.0403 2.9686V5.38441C15.0403 6.24163 14.339 6.943 13.4038 6.943Z" fill="#F6AA21"/>
<path id="Vector_4" d="M10.2866 3.35824H4.83154V1.72172C4.83154 1.25415 5.22119 0.864502 5.68877 0.864502H9.35145C9.81902 0.864502 10.2087 1.25415 10.2087 1.72172V3.35824H10.2866Z" fill="#F6AA21"/>
<path id="Vector_5" d="M13.9494 13.8785H1.01308C0.467576 13.8785 0 13.4109 0 12.8654V8.73519C0 8.18968 0.467576 7.72211 1.01308 7.72211H14.0273C14.5728 7.72211 15.0404 8.18968 15.0404 8.73519V12.8654C14.9624 13.4889 14.4949 13.8785 13.9494 13.8785Z" fill="#F6AA21"/>
<path id="Vector_6" d="M6.07832 9.82625C5.53281 9.82625 4.9873 9.35868 4.9873 8.81317V6.16357H7.0914V8.81317C7.0914 9.35868 6.62382 9.82625 6.07832 9.82625Z" fill="white"/>
<path id="Vector_7" d="M9.11762 9.82625C8.57212 9.82625 8.02661 9.35868 8.02661 8.81317V6.16357H10.1307V8.81317C10.1307 9.35868 9.66313 9.82625 9.11762 9.82625Z" fill="white"/>
<path id="Vector_8" d="M8.8059 2.42295H6.23423C6.1563 2.42295 6.07837 2.34502 6.07837 2.26709V2.0333C6.07837 1.95537 6.1563 1.87744 6.23423 1.87744H8.8059C8.88383 1.87744 8.96175 1.95537 8.96175 2.0333V2.34502C8.96175 2.34502 8.88383 2.42295 8.8059 2.42295Z" fill="white"/>
<path id="Vector_9" d="M13.7155 6.94287H1.32471V7.33252H13.7155V6.94287Z" fill="white"/>
</g>
</svg>
