<svg width="20" height="17" viewBox="0 0 20 17" fill="none" xmlns="http://www.w3.org/2000/svg">
<g id="Group">
<g id="Frame_1_">
<g id="Group_1_">
<path id="Vector_1_" d="M16.4813 4.06297C16.6542 4.06297 16.7406 4.06297 16.9135 4.06297C17.3457 4.06297 17.6051 4.32231 17.6051 4.6681C17.6051 5.01388 17.3457 5.27322 16.9135 5.27322C16.4813 5.27322 16.049 5.27322 15.6168 5.27322C15.6168 5.44611 15.6168 5.619 15.6168 5.7919L15.7032 5.87834C16.7406 6.13768 17.5186 6.65636 17.9508 7.52082C18.2966 8.29884 18.7289 8.99041 19.1611 9.76842C19.334 10.0278 19.4204 10.3735 19.4204 10.7193C19.4204 11.6702 19.4204 12.5347 19.4204 13.4856C19.4204 14.523 18.8153 15.2145 17.778 15.4739C17.9508 14.523 17.6051 13.7449 16.9135 13.1398C16.3948 12.7076 15.7897 12.5347 15.0981 12.5347C13.8014 12.5347 12.3318 13.7449 12.6776 15.5603C10.9487 15.5603 9.30622 15.5603 7.5773 15.5603C7.75019 14.6094 7.49085 13.8314 6.79928 13.2263C6.2806 12.794 5.58904 12.5347 4.89747 12.6211C3.25499 12.7076 2.21763 14.0043 2.47697 15.5603C2.39053 15.5603 2.30408 15.5603 2.21763 15.4739C1.26672 15.301 0.748047 14.6094 0.748047 13.7449C0.748047 13.2263 0.748047 12.7076 0.748047 12.1889C0.748047 10.8922 1.87185 9.76842 3.34143 9.76842C3.51433 9.76842 3.60077 9.68198 3.77366 9.59553C4.29234 8.73107 5.07036 7.95305 5.76193 7.17504C6.36705 6.48347 7.05862 6.13768 7.92308 5.87834C8.09598 5.87834 8.18242 5.7919 8.09598 5.619C8.09598 5.53256 8.09598 5.35967 8.09598 5.27322C7.75019 5.27322 7.40441 5.27322 7.05862 5.27322C6.71284 5.27322 6.4535 5.01388 6.4535 4.75454C6.4535 4.4952 6.62639 4.14942 6.88573 4.06297C6.97218 4.06297 7.14507 4.06297 7.23151 3.97653C7.40441 3.97653 7.5773 3.97653 7.75019 3.97653C7.75019 3.89008 7.75019 3.80363 7.75019 3.71719C7.75019 3.19851 7.75019 2.76628 7.75019 2.2476C7.75019 1.90182 8.00953 1.72892 8.44176 1.72892C9.47912 1.72892 10.5165 1.72892 11.6403 1.72892C11.7267 1.72892 11.8132 1.72892 11.8996 1.72892C11.8996 1.38314 11.8996 1.1238 11.8996 0.778016C11.8996 0.259339 12.1589 0 12.6776 0C13.715 0 14.6659 0 15.7032 0C16.2219 0 16.4813 0.259339 16.4813 0.69157C16.4813 1.72892 16.4813 2.76628 16.4813 3.80363C16.4813 3.89008 16.4813 3.97653 16.4813 4.06297ZM11.9861 9.68198C13.8879 9.68198 15.7032 9.68198 17.5186 9.68198C17.5186 9.59553 17.4322 9.59553 17.4322 9.50908C17.1728 8.99041 16.9135 8.47173 16.5677 7.86661C16.2219 7.34793 15.7897 7.00214 15.0981 7.00214C14.1472 7.00214 13.1099 7.00214 12.1589 7.00214C12.0725 7.00214 11.9861 7.00214 11.8996 7.00214C11.9861 7.95305 11.9861 8.81751 11.9861 9.68198ZM5.1568 9.68198C6.97218 9.68198 8.78755 9.68198 10.6029 9.68198C10.6029 8.81751 10.6029 7.95305 10.6029 7.08859C9.91135 7.08859 9.30622 7.08859 8.61465 7.08859C7.92308 7.08859 7.31796 7.34793 6.88573 7.78016C6.36705 8.38528 5.76193 9.07685 5.1568 9.68198ZM8.44176 11.9296C8.7011 11.9296 8.96044 11.9296 9.13333 11.9296C9.47911 11.9296 9.8249 11.6702 9.8249 11.3245C9.8249 10.9787 9.56556 10.7193 9.21978 10.6329C8.7011 10.6329 8.18242 10.6329 7.66374 10.6329C7.31796 10.6329 7.05862 10.8922 7.05862 11.238C7.05862 11.5838 7.31796 11.8431 7.75019 11.8431C7.92308 11.9296 8.18242 11.9296 8.44176 11.9296ZM9.47912 5.7919C11.1216 5.7919 12.6776 5.7919 14.2337 5.7919C14.2337 5.619 14.2337 5.44611 14.2337 5.27322C12.5912 5.27322 11.0351 5.27322 9.47912 5.27322C9.47912 5.44611 9.47912 5.619 9.47912 5.7919Z" fill="#F6AA21"/>
<path id="Vector_2_1_" d="M6.53984 14.9552C6.53984 15.8197 5.84827 16.5112 4.89736 16.5112C4.0329 16.5112 3.25488 15.8197 3.25488 14.9552C3.25488 14.0907 3.94645 13.3992 4.89736 13.3992C5.84827 13.3992 6.53984 14.0907 6.53984 14.9552Z" fill="#F6AA21"/>
<path id="Vector_3_1_" d="M15.098 13.3992C15.9625 13.3992 16.7405 14.0907 16.7405 14.9552C16.7405 15.8197 16.049 16.5112 15.098 16.5112C14.2336 16.5112 13.4556 15.8197 13.4556 14.9552C13.542 14.0907 14.2336 13.3992 15.098 13.3992Z" fill="#F6AA21"/>
</g>
</g>
</g>
</svg>
