<svg width="17" height="17" viewBox="0 0 17 17" fill="none" xmlns="http://www.w3.org/2000/svg">
<g id="Group">
<g id="Frame_1_">
<g id="Group_1_">
<path id="Vector_1_" d="M11.5021 12.3094C11.0699 11.7042 10.6377 11.1856 10.2054 10.5804C9.77319 10.9262 9.34096 11.3584 8.82228 11.7042C8.4765 11.9636 8.39005 12.1365 8.56295 12.5687C8.82228 13.4332 8.99518 14.3841 9.25452 15.2485C9.34096 15.4214 9.25452 15.5943 9.08162 15.7672C8.73584 16.0265 8.30361 16.2859 7.95782 16.6317C7.69848 16.8046 7.61204 16.8046 7.3527 16.6317C6.66113 15.9401 5.96956 15.2485 5.27799 14.557C5.19154 14.4705 5.19154 14.4705 5.19154 14.3841C4.84576 14.557 4.49997 14.6434 4.15419 14.8163C3.89485 14.9027 3.63551 14.9892 3.28973 14.9027C2.51171 14.7299 2.16593 14.0383 2.42526 13.3467C2.59816 12.9145 2.77105 12.4823 2.94394 12.05C2.77105 11.8771 2.6846 11.7907 2.51171 11.6178C1.90659 11.0127 1.21502 10.4075 0.609894 9.88886C0.437002 9.71597 0.437002 9.62953 0.609894 9.37019C0.955679 9.0244 1.21502 8.59217 1.5608 8.24639C1.64725 8.07349 1.82014 8.07349 1.99303 8.07349C2.8575 8.15994 3.9813 8.41928 5.01865 8.59217C5.19154 8.59217 5.27799 8.59217 5.36444 8.50573C5.71022 8.07349 6.14245 7.64126 6.48824 7.29548C6.48824 7.29548 6.57468 7.20903 6.57468 7.12259C6.14245 6.7768 5.53733 6.43102 5.01865 5.99879C5.1051 5.91234 5.1051 5.91234 5.19154 5.82589C6.31534 4.78854 7.52559 3.66474 8.64939 2.54094C8.73584 2.45449 8.82228 2.45449 8.99518 2.45449C9.6003 2.62738 10.2054 2.80027 10.897 3.05961C10.9834 3.05961 11.0699 3.05961 11.1563 2.97317C11.675 2.54094 12.1072 2.1087 12.6259 1.76292C13.231 1.33069 13.8362 1.07135 14.6142 1.07135C15.9973 1.07135 17.3805 2.45449 16.6889 4.09697C16.4296 4.61565 16.1702 5.04788 15.738 5.39366C15.3922 5.73945 15.1329 5.99879 14.7871 6.34457C14.7006 6.43102 14.7006 6.51746 14.7006 6.60391C14.96 7.20903 15.1329 7.81416 15.3922 8.50573C15.3922 8.59217 15.3922 8.67862 15.3922 8.76506C14.0955 9.88886 12.7988 11.0127 11.5021 12.3094C11.5886 12.2229 11.5886 12.2229 11.5021 12.3094Z" fill="#F6AA21"/>
<path id="Vector_2_1_" d="M15.2192 8.07349C15.3056 8.41927 15.4785 8.76506 15.565 9.11084C15.8243 9.80241 16.6888 11.7907 16.9481 12.4822C17.0346 12.7416 17.0346 13.0009 16.7752 13.2603C16.1701 13.7789 15.1328 14.8163 14.5276 15.335C14.1818 15.6808 13.7496 15.6808 13.4903 15.2485C12.9716 14.557 11.7614 12.4822 11.2427 11.7907C12.4529 10.7533 14.009 9.19729 15.2192 8.07349Z" fill="#F6AA21"/>
<path id="Vector_3_1_" d="M9.08144 2.54089C7.87119 3.66469 6.40161 5.13428 5.27781 6.17163C4.93202 5.99874 4.58624 5.7394 4.15401 5.48006C3.89467 5.22073 2.33864 4.44271 1.99285 4.18337C1.64707 3.92403 1.56062 3.57825 1.90641 3.23246C2.51153 2.62734 3.46244 1.67643 4.06756 1.07131C4.24045 0.898415 4.49979 0.811969 4.75913 0.898415C5.79649 1.2442 8.04409 2.19511 9.08144 2.54089Z" fill="#F6AA21"/>
</g>
</g>
</g>
</svg>
