<?xml version="1.0" encoding="utf-8"?>
<!-- Generator: Adobe Illustrator 23.0.5, SVG Export Plug-In . SVG Version: 6.00 Build 0)  -->
<svg version="1.1" id="Layer_1" xmlns="http://www.w3.org/2000/svg" xmlns:xlink="http://www.w3.org/1999/xlink" x="0px" y="0px"
	 viewBox="0 0 14 14" style="enable-background:new 0 0 14 14;" xml:space="preserve">
<style type="text/css">
	.st0{fill:#F7AA20;}
</style>
<g id="thumbs-up">
	<path id="Vector" class="st0" d="M8.2,5.2V2.9C8.2,2.5,8,2,7.7,1.7C7.3,1.4,6.9,1.2,6.4,1.2L4.1,6.4v6.4h6.6c0.3,0,0.6-0.1,0.8-0.3
		c0.2-0.2,0.4-0.4,0.4-0.7l0.8-5.3c0-0.2,0-0.3,0-0.5c0-0.2-0.1-0.3-0.2-0.4c-0.1-0.1-0.2-0.2-0.4-0.3c-0.2-0.1-0.3-0.1-0.5-0.1H8.2
		z M4.1,12.8H2.3c-0.3,0-0.6-0.1-0.8-0.3c-0.2-0.2-0.3-0.5-0.3-0.8V7.6c0-0.3,0.1-0.6,0.3-0.8C1.7,6.5,2,6.4,2.3,6.4h1.8"/>
</g>
</svg>
