<svg width="11" height="11" viewBox="0 0 11 11" fill="none" xmlns="http://www.w3.org/2000/svg">
<g id="map-pin">
<path id="Vector" d="M9.625 4.58331C9.625 7.79165 5.5 10.5416 5.5 10.5416C5.5 10.5416 1.375 7.79165 1.375 4.58331C1.375 3.48929 1.8096 2.44008 2.58318 1.6665C3.35677 0.89291 4.40598 0.458313 5.5 0.458313C6.59402 0.458313 7.64323 0.89291 8.41682 1.6665C9.1904 2.44008 9.625 3.48929 9.625 4.58331Z" fill="#48B5E4"/>
<path id="Vector_2" d="M5.5 5.95831C6.25939 5.95831 6.875 5.3427 6.875 4.58331C6.875 3.82392 6.25939 3.20831 5.5 3.20831C4.74061 3.20831 4.125 3.82392 4.125 4.58331C4.125 5.3427 4.74061 5.95831 5.5 5.95831Z" fill="#FBFCFE"/>
</g>
</svg>
