<svg width="21" height="21" viewBox="0 0 21 21" fill="none" xmlns="http://www.w3.org/2000/svg">
<g id="Frame" clip-path="url(#clip0_191_1222)">
<path id="Vector" d="M10.5281 0.779706C10.6901 0.779706 10.8576 0.752644 11.014 0.785118C12.5778 1.07197 14.03 1.14775 15.5714 0.330479C17.0012 -0.421841 18.5148 0.211407 19.6709 1.26682C21.0058 2.49001 21.2962 4.08125 20.7153 5.69414C20.33 6.77661 20.3858 7.72919 20.5925 8.8279C21.3744 13.0117 20.0339 16.5405 16.4539 19.0248C13.0581 21.3846 9.29378 21.6336 5.58527 19.7447C1.73155 17.7854 -0.111537 14.5325 0.00574982 10.3271C0.156548 4.97429 4.94298 0.671458 10.5281 0.779706ZM12.8292 2.34388C11.0866 1.89465 9.72942 1.88924 8.26054 2.20857C7.65734 2.33847 7.50655 2.6145 7.49538 3.17197C7.48421 3.73486 7.73554 3.94053 8.2382 4.02713C8.75203 4.11373 9.26586 4.21656 9.77969 4.32481C11.9355 4.77945 13.1643 7.46398 11.8015 9.10934C10.1874 11.0578 8.76878 13.0063 8.41692 15.5717C8.29963 16.4106 7.48979 16.8382 6.61852 16.9194C5.79751 16.9952 5.01001 16.7137 4.66931 15.9885C3.63048 13.7856 1.77623 11.6856 3.44618 9.03357C3.46852 9.0011 3.48527 8.96321 3.49644 8.92532C3.78687 7.92945 2.82064 8.04852 2.35708 7.7779C1.72596 7.40986 1.78181 8.02146 1.6757 8.35161C0.296175 12.7356 2.79272 17.5851 7.19937 19.1439C8.02038 19.4361 8.52304 19.447 8.9866 18.5269C9.84671 16.8166 11.9746 16.6596 13.0917 18.213C13.7619 19.1439 14.3036 18.9977 15.0073 18.3753C14.7784 18.1101 14.393 17.8666 14.3651 17.5959C14.1696 15.431 13.2034 13.1632 15.1526 11.2472C15.7613 10.6519 15.739 10.2026 15.0855 9.5261C13.1531 7.51269 11.6898 5.28821 12.8292 2.34388ZM6.37277 2.98254C4.99325 3.55625 4.17782 4.29775 3.44059 5.12584C2.34032 6.37068 2.31798 6.43563 3.85947 7.06347C4.93181 7.49646 5.38979 8.06476 4.78102 9.10393C3.82038 10.7655 3.97118 12.3405 5.02676 13.8939C5.1999 14.1537 5.28368 14.4676 5.4233 14.7436C5.65788 15.1983 5.85894 15.7124 6.52915 15.6529C7.21612 15.5934 7.35575 15.0305 7.40043 14.5488C7.61266 12.3297 8.76878 10.5815 10.2991 9.03357C11.0475 8.27584 11.0643 7.49646 10.7627 6.55471C10.355 5.2828 9.17649 5.49388 8.27171 5.29904C7.02064 5.03383 5.78633 4.90934 6.37277 2.98254ZM19.6765 4.77403C19.6932 2.59285 18.2635 1.2127 16.5488 1.31553C14.7504 1.42378 13.4547 2.99878 13.7395 4.73615C14.0244 6.48976 15.1023 7.79414 16.3366 9.01192C16.5656 9.23924 16.7722 9.34208 17.0347 9.06604C18.3305 7.70213 19.5815 6.32197 19.6765 4.77403ZM19.1459 8.71965C18.5036 9.34749 17.8837 9.93744 17.2805 10.549C15.5491 12.2918 14.7448 14.2836 15.5156 16.7029C15.7055 17.2983 15.9289 17.7637 16.6438 17.2712C18.9002 15.7233 20.168 11.4637 19.1459 8.71965ZM11.014 19.6743C11.4105 19.4794 12.1645 19.9395 12.2371 19.2251C12.2706 18.8678 11.8127 18.3374 11.2486 18.4132C10.6454 18.489 9.96399 18.7596 9.99192 19.4199C10.0087 19.9287 10.6454 19.539 11.014 19.6743Z" fill="#3E3E3E"/>
<path id="Vector_2" d="M16.6493 6.13222C15.6328 6.09433 14.7615 5.19046 14.7839 4.19459C14.8062 3.17165 15.6831 2.37062 16.7554 2.39227C17.7998 2.41392 18.6711 3.29613 18.632 4.29201C18.5873 5.28789 17.6434 6.16469 16.6493 6.13222ZM16.6325 3.61546C16.2527 3.68041 15.9958 3.90773 16.0517 4.3299C16.0964 4.69252 16.3645 4.84407 16.7442 4.83866C17.1464 4.83325 17.3642 4.58428 17.3642 4.25953C17.3642 3.86984 17.1184 3.60464 16.6325 3.61546Z" fill="#3E3E3E"/>
</g>
<defs>
<clipPath id="clip0_191_1222">
<rect width="21" height="21" fill="white"/>
</clipPath>
</defs>
</svg>
