<svg width="32" height="22" viewBox="0 0 32 22" fill="none" xmlns="http://www.w3.org/2000/svg">
<g id="Group">
<path id="Vector" d="M24.5105 12.2761L24.4664 12.1859L24.3883 12.2481C24.3303 12.2962 24.2622 12.3383 24.1901 12.3844C24.0259 12.4907 23.8557 12.6009 23.7897 12.7653C23.6695 13.0721 23.5794 13.3949 23.4953 13.7056C23.4153 13.9943 23.3352 14.2931 23.227 14.5758C22.9647 15.2655 22.6184 15.6304 22.2239 15.6304C21.8895 15.6304 21.5111 15.3717 21.1247 14.8805C20.4459 14.0184 19.7571 13.5813 19.0784 13.5813C18.704 13.5813 18.3375 13.7177 17.9911 13.9843C17.6488 14.249 17.3224 14.6459 17.0221 15.1632C16.8779 15.4098 16.5876 15.5923 16.3053 15.7687C16.2031 15.8329 16.097 15.899 15.9989 15.9672C15.7947 16.1115 15.5704 16.2439 15.3562 16.3742C14.9237 16.6328 14.4772 16.8995 14.1448 17.2684C13.6603 17.8057 13.3259 18.3631 13.1497 18.9285C12.9615 19.538 12.9535 20.1695 13.1257 20.8051C10.1243 20.789 6.55628 18.3631 5.26683 15.472C5.27484 15.47 5.28285 15.468 5.29086 15.466C5.35293 15.4519 5.39898 15.4419 5.44303 15.4399C6.69244 15.3737 7.96187 15.2133 9.21928 14.9607C10.4066 14.7241 11.624 14.3973 12.8374 13.9903C15.0258 13.2565 17.2723 12.2481 19.7011 10.9048C19.8893 10.8005 19.9914 10.5679 20.0895 10.3434C20.1316 10.2472 20.1756 10.1469 20.2257 10.0627L20.2957 9.9424H20.1556C20.0555 9.9424 19.9494 9.93238 19.8452 9.92235C19.7371 9.91233 19.625 9.9003 19.5169 9.9003C19.3667 9.9003 19.2506 9.92235 19.1505 9.96646C18.6018 10.2151 18.0592 10.4938 17.5326 10.7644C17.0181 11.0291 16.4835 11.3037 15.9489 11.5463C12.4689 13.1262 9.19525 14.0264 5.94159 14.2991C5.64526 14.3232 5.411 14.3432 5.22879 14.3432C4.66416 14.3432 4.6121 14.1788 4.39185 13.1904C3.94134 11.1594 4.10953 9.15848 4.89642 7.24178C5.01455 6.95507 5.19275 6.71849 5.37696 6.60822C5.49709 6.53604 5.65127 6.49995 5.83948 6.49995C6.45617 6.49995 7.26909 6.8869 7.77365 7.41821C8.32427 7.99964 8.37233 8.58106 7.91982 9.2487C7.69957 9.5735 7.52337 9.99854 7.39723 10.5078C7.189 11.3499 7.51536 11.9714 8.3443 12.3042C8.57856 12.3984 8.92895 12.5267 9.28135 12.5548C9.65978 12.5849 9.99015 12.6009 10.2965 12.6009C10.9172 12.6009 11.4298 12.5388 11.8623 12.4085C12.3708 12.2561 12.7633 12.0155 13.0596 11.6727C13.3379 11.3519 13.5281 10.9368 13.6242 10.4416C13.7264 9.91433 13.7264 9.27477 13.6222 8.53896C13.5502 8.01968 13.9046 7.36006 14.1408 6.925C14.275 6.67639 14.5072 6.48191 14.7535 6.2754C14.8616 6.18518 14.9738 6.09095 15.0759 5.99271C16.047 5.05441 16.101 4.47498 15.3161 3.41037C15.2781 3.36025 15.236 3.31213 15.196 3.26401C15.1139 3.16978 15.0358 3.08156 15.0058 2.98533C14.9758 2.8911 14.9397 2.79286 14.9037 2.69461C14.7895 2.38185 14.6694 2.06106 14.7555 1.84453C14.9097 1.45557 15.228 1.23904 15.6545 1.23904C15.8047 1.23904 15.9609 1.26711 16.121 1.32124C16.4414 1.42951 16.7638 1.5498 17.0761 1.66809C17.5406 1.84252 18.0212 2.02297 18.5057 2.16531C18.5618 2.18135 18.6239 2.18937 18.6919 2.18937C18.8381 2.18937 18.9943 2.15128 19.1444 2.11319C19.2365 2.08913 19.3327 2.06507 19.4208 2.05304L19.5389 2.03499L19.4788 1.93274C19.4368 1.86057 19.3967 1.76834 19.3587 1.68213C19.2666 1.47161 19.1705 1.25308 19.0003 1.19493C18.7019 1.09268 18.3976 0.982411 18.1033 0.874146C17.1382 0.525289 16.1431 0.160394 15.1319 0.0601476C14.7415 0.0200492 14.347 0 13.9606 0C12.7332 0 11.5359 0.198487 10.4006 0.587442C9.28936 0.968377 8.25419 1.52975 7.32315 2.25153C6.3941 2.9733 5.58319 3.84744 4.91644 4.84589C4.23567 5.8664 3.71509 7.00118 3.3667 8.22419C3.2786 8.53495 3.02231 8.81764 2.746 9.10635C2.4817 9.38103 2.19137 9.64768 1.91106 9.90431C1.38246 10.3855 0.837852 10.8867 0.431394 11.4722C0.235174 11.7569 0.103025 12.0516 0.0409552 12.3503C-0.0191124 12.641 -0.0131056 12.9297 0.0589754 13.2084C0.213149 13.8099 0.66766 14.3232 1.33441 14.654C1.91506 14.9407 2.60384 15.1552 3.38472 15.2875C3.76514 15.3537 3.94735 15.49 4.13756 15.8489C4.65615 16.8333 5.27084 17.7215 5.96362 18.4874C6.65039 19.2452 7.42526 19.8948 8.26421 20.4161C9.10115 20.9354 10.0102 21.3324 10.9692 21.597C11.9323 21.8637 12.9535 21.998 14.0067 21.998C14.6414 21.998 15.2981 21.9479 15.9569 21.8516C17.0201 21.6932 18.0772 21.3404 19.0964 20.8011C20.0815 20.2798 20.9925 19.6041 21.8034 18.7961C22.6164 17.9861 23.2911 17.0819 23.8077 16.1075C24.3443 15.0971 24.6887 14.0525 24.8328 13.0019C24.8569 12.8315 24.7447 12.6571 24.6346 12.4887C24.5906 12.4185 24.5445 12.3443 24.5105 12.2761ZM13.388 1.17288C13.5081 1.17288 13.6262 1.17689 13.7404 1.18491C13.4801 1.63802 13.404 2.08512 13.5081 2.54625C13.5982 2.94523 13.8124 3.34621 14.2069 3.84744C14.5413 4.27449 14.7014 4.48701 14.6854 4.66545C14.6694 4.84188 14.4732 5.02834 14.0667 5.39725C13.6683 5.76014 13.2538 6.14909 12.9495 6.59419C12.6071 7.09141 12.4369 7.60467 12.4249 8.16404C12.4189 8.46077 12.4489 8.7595 12.4769 9.05021C12.501 9.30684 12.527 9.57149 12.529 9.83013C12.531 10.3233 12.4489 10.6602 12.2687 10.8907C12.0825 11.1293 11.7762 11.2757 11.3076 11.3458C11.0413 11.3859 10.749 11.406 10.4166 11.406C10.0302 11.406 9.63575 11.3799 9.25332 11.3539C9.18524 11.3499 9.11917 11.3438 9.05309 11.3398C8.81082 11.3238 8.64463 11.2496 8.55854 11.1213C8.43239 10.9288 8.49647 10.6321 8.57456 10.4156C8.67066 10.1469 8.77078 9.95443 8.89291 9.81008C9.27735 9.35296 9.45555 8.77754 9.39147 8.18609C9.32139 7.53048 8.96099 6.91698 8.37633 6.46186C7.8998 6.09095 7.34117 5.81227 6.80056 5.54361C6.58031 5.43334 6.35406 5.32106 6.13381 5.20077C7.14895 3.15775 10.711 1.17288 13.388 1.17288ZM2.87414 14.0505C2.37158 13.854 1.89504 13.6696 1.50861 13.3748C1.40649 13.2966 1.31439 13.0861 1.27434 12.8335C1.2343 12.5809 1.25232 12.3383 1.3244 12.214C1.61072 11.7148 1.99315 11.2777 2.43765 10.7724C2.58982 10.6 2.744 10.4236 2.90418 10.2351L3.03032 11.2777L3.39072 14.253C3.21653 14.1828 3.04233 14.1146 2.87414 14.0505ZM15.7987 20.7289C15.7466 20.7389 15.6926 20.7449 15.6365 20.7509C15.5884 20.7549 15.5364 20.761 15.4863 20.769C15.3041 20.7991 15.1359 20.8151 14.9898 20.8151C14.6254 20.8151 14.3731 20.7209 14.2389 20.5324C14.0687 20.2938 14.0767 19.8928 14.267 19.3415C14.7495 17.936 15.4663 17.2122 16.5916 16.9917C16.94 16.9235 17.2343 16.7672 17.4926 16.5125C17.6968 16.312 17.875 16.0574 18.0732 15.6845C18.4156 15.0389 18.73 14.7402 19.0684 14.7402C19.3667 14.7402 19.7091 14.9667 20.1476 15.4559C20.5 15.8469 20.9144 16.1737 21.3529 16.5185C21.5331 16.6609 21.7193 16.8052 21.9035 16.9596C20.4299 18.9565 18.3756 20.2236 15.7987 20.7289Z" fill="#3E3E3E"/>
<path id="Vector_2" d="M31.8969 3.47854C31.7448 3.17981 31.4284 2.96528 30.9278 2.82293C30.6896 2.75476 30.4473 2.72068 30.211 2.72068C29.4222 2.72068 28.7494 3.10562 28.2528 3.44045C27.9245 3.66099 27.6722 3.75522 27.4059 3.75522C27.2177 3.75522 27.0215 3.70509 26.8072 3.60485C26.2706 3.35223 25.706 3.14171 25.1594 2.93721C24.5627 2.71466 23.944 2.4841 23.3673 2.1994C22.9228 1.98086 22.5184 1.8726 22.132 1.8726C21.6354 1.8726 21.1549 2.05103 20.6603 2.41593C20.2659 2.70664 20.1077 2.91315 20.1117 3.12367C20.1157 3.32817 20.2759 3.52265 20.6443 3.76925C21.4111 4.28452 22.164 4.78174 22.9629 5.30703C23.2612 5.50351 23.5696 5.70801 23.8759 5.91051C23.4855 6.22929 23.059 6.50797 22.5805 6.50797C22.3462 6.50797 22.1119 6.44382 21.8617 6.3135C21.7295 6.24533 21.5513 6.20724 21.3591 6.20724C21.1889 6.20724 21.0207 6.23731 20.8846 6.28944C19.9455 6.65433 19.547 6.94304 19.505 7.28588C19.463 7.62472 19.7693 7.98961 20.5582 8.54297C21.3451 9.09432 21.7035 9.76597 21.7555 10.7865C21.7715 11.1133 21.8056 11.4541 21.9317 11.7448C22.0158 11.9393 22.3122 12.1378 22.5204 12.1378C22.8307 12.1378 23.2652 11.9233 23.6517 11.5764C24.0481 11.2215 24.3044 10.8166 24.3364 10.4938C24.4145 9.68377 24.879 9.35296 25.706 9.05623C25.722 9.38303 25.738 9.70783 25.752 10.0246C25.7981 11.009 25.8421 11.9393 25.9282 12.8796C25.9583 13.1964 26.2306 13.6555 26.5089 13.7397C26.5449 13.7497 26.585 13.7558 26.627 13.7558C26.9374 13.7558 27.4019 13.465 27.7343 13.1924C28.0646 12.9217 28.435 12.5308 28.4791 12.2441L28.5231 11.9674C28.7214 10.7203 28.9276 9.43315 29.0758 8.15802C29.1799 7.26182 29.4162 6.6423 30.2631 6.33555C30.6515 6.19521 30.9879 5.96063 31.2642 5.64185C31.5085 5.35915 31.7107 5.00228 31.8669 4.58125C32.0331 4.13214 32.0451 3.76925 31.8969 3.47854ZM30.6575 4.44291C30.4593 4.74164 30.2531 5.0504 29.9888 5.15866C28.5892 5.73207 27.9505 6.71649 27.9145 8.34849C27.8964 9.2086 27.7323 10.0827 27.5761 10.9288C27.534 11.1614 27.488 11.4 27.4479 11.6346C27.4199 11.795 27.3238 11.9473 27.2217 12.1077C27.1876 12.1619 27.1516 12.22 27.1176 12.2761L27.0255 12.24C27.0054 11.8812 26.9854 11.5183 26.9674 11.1654C26.9233 10.3173 26.8773 9.44117 26.8152 8.57906C26.7872 8.19411 26.7451 7.94951 26.6751 7.78912C26.591 7.59464 26.4628 7.50041 26.2786 7.50041C26.0924 7.50041 25.8521 7.59464 25.4457 7.82521C25.3676 7.86932 25.2895 7.91743 25.2154 7.96355C25.0693 8.05377 24.9191 8.146 24.7649 8.21416C24.2844 8.42468 23.95 8.64923 23.7117 8.9239C23.4234 9.25472 23.2792 9.6557 23.2712 10.1489C23.2692 10.2973 23.1231 10.4657 22.9649 10.6221C22.9048 10.0707 22.7887 9.40509 22.4823 8.8417C22.16 8.25226 21.6694 7.84125 20.9847 7.59063L21.0107 7.5385L21.0567 7.44828C21.1188 7.44628 21.1829 7.43826 21.247 7.43224C21.325 7.42422 21.3991 7.4162 21.4692 7.4162C21.5553 7.4162 21.6194 7.42823 21.6674 7.4543C21.9798 7.6167 22.2821 7.69689 22.5925 7.69689C23.1551 7.69689 23.6757 7.42623 24.1562 7.13351L24.2664 7.06735C25.1534 6.52802 25.5578 6.28142 25.5638 5.97467C25.5698 5.66591 25.1694 5.39925 24.2904 4.81783L24.2443 4.78775C23.3033 4.16422 22.5264 3.64896 21.8056 3.16978C21.7996 3.15976 21.7896 3.13971 21.7776 3.11765C21.7635 3.09159 21.7455 3.0555 21.7195 3.00538C21.8156 3.01741 21.9057 3.02543 21.9878 3.03345C22.214 3.0555 22.3942 3.07154 22.5504 3.13169C23.97 3.67101 25.4357 4.23038 26.8933 4.8499C27.1256 4.94815 27.3318 4.99626 27.528 4.99626C27.7843 4.99626 28.0266 4.91607 28.2909 4.74565C28.7674 4.43689 29.2359 4.14618 29.7365 3.97175C29.8446 3.93366 29.9688 3.91762 30.1269 3.91762C30.2431 3.91762 30.3652 3.92764 30.4813 3.93566C30.5895 3.94368 30.7016 3.9517 30.8117 3.9537L30.9158 4.08001C30.8257 4.19029 30.7416 4.3186 30.6575 4.44291Z" fill="#3E3E3E"/>
</g>
</svg>
