<svg width="14" height="14" viewBox="0 0 14 14" fill="none" xmlns="http://www.w3.org/2000/svg">
<g id="thumbs-down">
<path id="Vector" d="M5.83311 8.75005V11.0834C5.83311 11.5475 6.01748 11.9926 6.34567 12.3208C6.67386 12.649 7.11898 12.8334 7.58311 12.8334L9.91644 7.58338V1.16671H3.33644C3.05508 1.16353 2.78205 1.26214 2.56766 1.44438C2.35327 1.62661 2.21196 1.88019 2.16977 2.15838L1.36477 7.40838C1.33939 7.57559 1.35067 7.74632 1.39783 7.90873C1.44498 8.07115 1.52688 8.22138 1.63786 8.349C1.74883 8.47662 1.88623 8.57859 2.04052 8.64784C2.19482 8.71709 2.36233 8.75196 2.53144 8.75005H5.83311ZM9.91644 1.16671H11.4739C11.8041 1.16088 12.1249 1.27646 12.3754 1.49153C12.626 1.70659 12.7888 2.00617 12.8331 2.33338V6.41671C12.7888 6.74393 12.626 7.0435 12.3754 7.25857C12.1249 7.47364 11.8041 7.58922 11.4739 7.58338H9.91644" fill="#D6D5D4"/>
</g>
</svg>
